<mxfile host="app.diagrams.net" agent="Mozilla/5.0 (Windows NT 10.0; Win64; x64) AppleWebKit/537.36 (KHTML, like Gecko) Chrome/139.0.0.0 Safari/537.36" version="28.1.2">
  <diagram name="Page-1" id="qVgCee7znSU5MG0GAPxO">
    <mxGraphModel dx="2911" dy="2293" grid="1" gridSize="10" guides="1" tooltips="1" connect="1" arrows="1" fold="1" page="1" pageScale="1" pageWidth="827" pageHeight="1169" math="0" shadow="0">
      <root>
        <mxCell id="0" />
        <mxCell id="1" parent="0" />
        <mxCell id="EfrmEKC3pFDqlyyvmcpR-59" value="" style="rounded=0;whiteSpace=wrap;html=1;fillColor=#fff2cc;strokeColor=#d6b656;" vertex="1" parent="1">
          <mxGeometry x="2310" y="100" width="850" height="790" as="geometry" />
        </mxCell>
        <mxCell id="EfrmEKC3pFDqlyyvmcpR-28" value="" style="rounded=0;whiteSpace=wrap;html=1;fillColor=#fff2cc;strokeColor=#d6b656;labelBackgroundColor=none;" vertex="1" parent="1">
          <mxGeometry x="-10" y="-280" width="1700" height="1650" as="geometry" />
        </mxCell>
        <mxCell id="LowAc8mE-aye6n6s5Lvp-24" value="" style="startArrow=none;endArrow=block;rounded=0;edgeStyle=orthogonalEdgeStyle;fontSize=22;labelBackgroundColor=none;" parent="1" source="EfrmEKC3pFDqlyyvmcpR-1" target="EfrmEKC3pFDqlyyvmcpR-2" edge="1">
          <mxGeometry relative="1" as="geometry">
            <mxPoint x="867" y="8.279999999999973" as="sourcePoint" />
            <mxPoint x="705.5000000000005" y="68" as="targetPoint" />
          </mxGeometry>
        </mxCell>
        <mxCell id="LowAc8mE-aye6n6s5Lvp-25" value="" style="startArrow=none;endArrow=block;rounded=0;edgeStyle=orthogonalEdgeStyle;fontSize=22;labelBackgroundColor=none;" parent="1" source="EfrmEKC3pFDqlyyvmcpR-2" target="EfrmEKC3pFDqlyyvmcpR-3" edge="1">
          <mxGeometry relative="1" as="geometry">
            <mxPoint x="644.8899999999999" y="122" as="sourcePoint" />
            <mxPoint x="590" y="172" as="targetPoint" />
          </mxGeometry>
        </mxCell>
        <mxCell id="LowAc8mE-aye6n6s5Lvp-26" value="" style="startArrow=none;endArrow=block;entryX=0.5;entryY=0;rounded=0;entryDx=0;entryDy=0;entryPerimeter=0;fontSize=22;labelBackgroundColor=none;edgeStyle=orthogonalEdgeStyle;" parent="1" source="EfrmEKC3pFDqlyyvmcpR-3" target="EfrmEKC3pFDqlyyvmcpR-7" edge="1">
          <mxGeometry relative="1" as="geometry">
            <mxPoint x="590" y="226" as="sourcePoint" />
            <mxPoint x="588.5" y="334" as="targetPoint" />
          </mxGeometry>
        </mxCell>
        <mxCell id="LowAc8mE-aye6n6s5Lvp-27" value="" style="startArrow=none;endArrow=block;exitX=0;exitY=0.5;entryX=0.5;entryY=0;rounded=0;exitDx=0;exitDy=0;exitPerimeter=0;entryDx=0;entryDy=0;entryPerimeter=0;fontSize=22;labelBackgroundColor=none;edgeStyle=orthogonalEdgeStyle;" parent="1" source="EfrmEKC3pFDqlyyvmcpR-7" target="EfrmEKC3pFDqlyyvmcpR-12" edge="1">
          <mxGeometry relative="1" as="geometry">
            <mxPoint x="503" y="395.3399999999997" as="sourcePoint" />
            <mxPoint x="193.5" y="542" as="targetPoint" />
          </mxGeometry>
        </mxCell>
        <mxCell id="LowAc8mE-aye6n6s5Lvp-28" value="" style="startArrow=none;endArrow=block;exitX=0.5;exitY=1;entryX=0.5;entryY=0;rounded=0;exitDx=0;exitDy=0;exitPerimeter=0;entryDx=0;entryDy=0;entryPerimeter=0;fontSize=22;labelBackgroundColor=none;edgeStyle=orthogonalEdgeStyle;" parent="1" source="EfrmEKC3pFDqlyyvmcpR-7" target="EfrmEKC3pFDqlyyvmcpR-13" edge="1">
          <mxGeometry relative="1" as="geometry">
            <mxPoint x="588.5" y="411" as="sourcePoint" />
            <mxPoint x="589.5000000000005" y="555" as="targetPoint" />
          </mxGeometry>
        </mxCell>
        <mxCell id="LowAc8mE-aye6n6s5Lvp-29" value="" style="startArrow=none;endArrow=block;exitX=1;exitY=0.5;rounded=0;exitDx=0;exitDy=0;exitPerimeter=0;fontSize=22;labelBackgroundColor=none;edgeStyle=orthogonalEdgeStyle;" parent="1" source="EfrmEKC3pFDqlyyvmcpR-7" target="EfrmEKC3pFDqlyyvmcpR-10" edge="1">
          <mxGeometry relative="1" as="geometry">
            <mxPoint x="674" y="398.5799999999999" as="sourcePoint" />
            <mxPoint x="892" y="554" as="targetPoint" />
          </mxGeometry>
        </mxCell>
        <mxCell id="LowAc8mE-aye6n6s5Lvp-30" value="" style="startArrow=none;endArrow=block;exitX=0.5;exitY=1;entryX=0.5;entryY=0;rounded=0;exitDx=0;exitDy=0;exitPerimeter=0;entryDx=0;entryDy=0;entryPerimeter=0;fontSize=22;labelBackgroundColor=none;edgeStyle=orthogonalEdgeStyle;" parent="1" source="EfrmEKC3pFDqlyyvmcpR-12" target="EfrmEKC3pFDqlyyvmcpR-11" edge="1">
          <mxGeometry relative="1" as="geometry">
            <mxPoint x="193.5" y="641" as="sourcePoint" />
            <mxPoint x="193.5" y="756" as="targetPoint" />
          </mxGeometry>
        </mxCell>
        <mxCell id="LowAc8mE-aye6n6s5Lvp-31" value="" style="startArrow=none;endArrow=block;exitX=0.5;exitY=1;entryX=0.5;entryY=0;rounded=0;exitDx=0;exitDy=0;exitPerimeter=0;entryDx=0;entryDy=0;entryPerimeter=0;fontSize=22;labelBackgroundColor=none;edgeStyle=orthogonalEdgeStyle;" parent="1" source="EfrmEKC3pFDqlyyvmcpR-13" target="EfrmEKC3pFDqlyyvmcpR-14" edge="1">
          <mxGeometry relative="1" as="geometry">
            <mxPoint x="589.5000000000005" y="611" as="sourcePoint" />
            <mxPoint x="588.5" y="699.9999999999995" as="targetPoint" />
          </mxGeometry>
        </mxCell>
        <mxCell id="LowAc8mE-aye6n6s5Lvp-32" value="" style="startArrow=none;endArrow=block;exitX=0;exitY=0.5;rounded=0;exitDx=0;exitDy=0;exitPerimeter=0;fontSize=22;labelBackgroundColor=none;edgeStyle=orthogonalEdgeStyle;" parent="1" source="EfrmEKC3pFDqlyyvmcpR-11" target="EfrmEKC3pFDqlyyvmcpR-15" edge="1">
          <mxGeometry relative="1" as="geometry">
            <mxPoint x="141.01000000000022" y="839" as="sourcePoint" />
            <mxPoint x="94" y="925" as="targetPoint" />
          </mxGeometry>
        </mxCell>
        <mxCell id="LowAc8mE-aye6n6s5Lvp-33" value="" style="startArrow=none;endArrow=block;exitX=1;exitY=0.5;rounded=0;exitDx=0;exitDy=0;exitPerimeter=0;fontSize=22;labelBackgroundColor=none;edgeStyle=orthogonalEdgeStyle;" parent="1" source="EfrmEKC3pFDqlyyvmcpR-11" target="EfrmEKC3pFDqlyyvmcpR-24" edge="1">
          <mxGeometry relative="1" as="geometry">
            <mxPoint x="244.1800000000003" y="839" as="sourcePoint" />
            <mxPoint x="292" y="925" as="targetPoint" />
          </mxGeometry>
        </mxCell>
        <mxCell id="LowAc8mE-aye6n6s5Lvp-34" value="" style="startArrow=none;endArrow=block;exitX=0;exitY=0.5;entryX=0.457;entryY=-0.032;rounded=0;exitDx=0;exitDy=0;exitPerimeter=0;entryDx=0;entryDy=0;entryPerimeter=0;fontSize=22;labelBackgroundColor=none;edgeStyle=orthogonalEdgeStyle;" parent="1" source="EfrmEKC3pFDqlyyvmcpR-14" target="EfrmEKC3pFDqlyyvmcpR-16" edge="1">
          <mxGeometry relative="1" as="geometry">
            <mxPoint x="537.0100000000002" y="839" as="sourcePoint" />
            <mxPoint x="490" y="925" as="targetPoint" />
          </mxGeometry>
        </mxCell>
        <mxCell id="LowAc8mE-aye6n6s5Lvp-35" value="" style="startArrow=none;endArrow=block;exitX=1;exitY=0.5;entryX=0.5;entryY=0;rounded=0;exitDx=0;exitDy=0;exitPerimeter=0;entryDx=0;entryDy=0;entryPerimeter=0;fontSize=22;labelBackgroundColor=none;edgeStyle=orthogonalEdgeStyle;" parent="1" source="EfrmEKC3pFDqlyyvmcpR-14" target="EfrmEKC3pFDqlyyvmcpR-25" edge="1">
          <mxGeometry relative="1" as="geometry">
            <mxPoint x="672.7599999999998" y="839" as="sourcePoint" />
            <mxPoint x="752" y="925" as="targetPoint" />
          </mxGeometry>
        </mxCell>
        <mxCell id="LowAc8mE-aye6n6s5Lvp-36" value="" style="startArrow=none;endArrow=block;rounded=0;edgeStyle=orthogonalEdgeStyle;fontSize=22;labelBackgroundColor=none;" parent="1" source="EfrmEKC3pFDqlyyvmcpR-1" target="EfrmEKC3pFDqlyyvmcpR-5" edge="1">
          <mxGeometry relative="1" as="geometry">
            <mxPoint x="1024" y="2.339999999999918" as="sourcePoint" />
            <mxPoint x="1266.1599999999999" y="344" as="targetPoint" />
          </mxGeometry>
        </mxCell>
        <mxCell id="LowAc8mE-aye6n6s5Lvp-37" value="" style="startArrow=none;endArrow=block;rounded=0;fontSize=22;labelBackgroundColor=none;edgeStyle=orthogonalEdgeStyle;" parent="1" target="EfrmEKC3pFDqlyyvmcpR-23" edge="1">
          <mxGeometry relative="1" as="geometry">
            <mxPoint x="1228.005" y="273" as="sourcePoint" />
            <mxPoint x="1228" y="554" as="targetPoint" />
          </mxGeometry>
        </mxCell>
        <mxCell id="LowAc8mE-aye6n6s5Lvp-38" value="" style="startArrow=none;endArrow=block;entryX=0.5;entryY=0;rounded=0;entryDx=0;entryDy=0;entryPerimeter=0;fontSize=22;labelBackgroundColor=none;edgeStyle=orthogonalEdgeStyle;" parent="1" source="EfrmEKC3pFDqlyyvmcpR-23" target="EfrmEKC3pFDqlyyvmcpR-22" edge="1">
          <mxGeometry relative="1" as="geometry">
            <mxPoint x="1228" y="608" as="sourcePoint" />
            <mxPoint x="1228.0100000000002" y="693.9999999999995" as="targetPoint" />
          </mxGeometry>
        </mxCell>
        <mxCell id="LowAc8mE-aye6n6s5Lvp-39" value="" style="startArrow=none;endArrow=block;exitX=0;exitY=0.5;rounded=0;entryX=0.5;entryY=0;entryDx=0;entryDy=0;entryPerimeter=0;exitDx=0;exitDy=0;exitPerimeter=0;fontSize=22;labelBackgroundColor=none;edgeStyle=orthogonalEdgeStyle;" parent="1" source="EfrmEKC3pFDqlyyvmcpR-22" target="EfrmEKC3pFDqlyyvmcpR-20" edge="1">
          <mxGeometry relative="1" as="geometry">
            <mxPoint x="1123" y="835.2200000000003" as="sourcePoint" />
            <mxPoint x="994" y="925" as="targetPoint" />
          </mxGeometry>
        </mxCell>
        <mxCell id="LowAc8mE-aye6n6s5Lvp-40" value="" style="startArrow=none;endArrow=block;exitX=1;exitY=0.5;entryX=0.5;entryY=0;rounded=0;entryDx=0;entryDy=0;entryPerimeter=0;exitDx=0;exitDy=0;exitPerimeter=0;fontSize=22;labelBackgroundColor=none;edgeStyle=orthogonalEdgeStyle;" parent="1" source="EfrmEKC3pFDqlyyvmcpR-22" target="EfrmEKC3pFDqlyyvmcpR-21" edge="1">
          <mxGeometry relative="1" as="geometry">
            <mxPoint x="1334.0000000000005" y="835.2200000000003" as="sourcePoint" />
            <mxPoint x="1462.5" y="925" as="targetPoint" />
          </mxGeometry>
        </mxCell>
        <mxCell id="LowAc8mE-aye6n6s5Lvp-41" value="" style="startArrow=none;endArrow=block;exitX=0;exitY=0.5;rounded=0;exitDx=0;exitDy=0;exitPerimeter=0;fontSize=22;labelBackgroundColor=none;edgeStyle=orthogonalEdgeStyle;" parent="1" source="EfrmEKC3pFDqlyyvmcpR-20" edge="1">
          <mxGeometry relative="1" as="geometry">
            <mxPoint x="931.8800000000001" y="1013" as="sourcePoint" />
            <mxPoint x="882.4285714285716" y="1149.25" as="targetPoint" />
          </mxGeometry>
        </mxCell>
        <mxCell id="LowAc8mE-aye6n6s5Lvp-42" value="" style="startArrow=none;endArrow=block;exitX=1;exitY=0.5;entryX=0.5;entryY=0;rounded=0;exitDx=0;exitDy=0;exitPerimeter=0;entryDx=0;entryDy=0;entryPerimeter=0;fontSize=22;labelBackgroundColor=none;edgeStyle=orthogonalEdgeStyle;" parent="1" source="EfrmEKC3pFDqlyyvmcpR-20" target="EfrmEKC3pFDqlyyvmcpR-26" edge="1">
          <mxGeometry relative="1" as="geometry">
            <mxPoint x="1055.12" y="1013" as="sourcePoint" />
            <mxPoint x="1113.5" y="1109" as="targetPoint" />
          </mxGeometry>
        </mxCell>
        <mxCell id="LowAc8mE-aye6n6s5Lvp-43" value="" style="startArrow=none;endArrow=block;exitX=0;exitY=0.5;rounded=0;exitDx=0;exitDy=0;exitPerimeter=0;fontSize=22;labelBackgroundColor=none;edgeStyle=orthogonalEdgeStyle;" parent="1" source="EfrmEKC3pFDqlyyvmcpR-21" edge="1">
          <mxGeometry relative="1" as="geometry">
            <mxPoint x="1400.8800000000006" y="1013" as="sourcePoint" />
            <mxPoint x="1347.8571428571431" y="1144.2599999999998" as="targetPoint" />
          </mxGeometry>
        </mxCell>
        <mxCell id="LowAc8mE-aye6n6s5Lvp-44" value="" style="startArrow=none;endArrow=block;exitX=1;exitY=0.5;entryX=0.5;entryY=0;rounded=0;exitDx=0;exitDy=0;exitPerimeter=0;entryDx=0;entryDy=0;entryPerimeter=0;fontSize=22;labelBackgroundColor=none;edgeStyle=orthogonalEdgeStyle;" parent="1" source="EfrmEKC3pFDqlyyvmcpR-21" edge="1">
          <mxGeometry relative="1" as="geometry">
            <mxPoint x="1524.1200000000003" y="1013" as="sourcePoint" />
            <mxPoint x="1595.75" y="1154.2399999999998" as="targetPoint" />
          </mxGeometry>
        </mxCell>
        <mxCell id="LowAc8mE-aye6n6s5Lvp-45" value="" style="startArrow=none;endArrow=none;rounded=0;edgeStyle=orthogonalEdgeStyle;entryX=0;entryY=0.5;entryDx=0;entryDy=0;entryPerimeter=0;fontSize=22;labelBackgroundColor=none;" parent="1" source="EfrmEKC3pFDqlyyvmcpR-2" target="EfrmEKC3pFDqlyyvmcpR-4" edge="1">
          <mxGeometry relative="1" as="geometry">
            <mxPoint x="810" y="110.65999999999985" as="sourcePoint" />
            <mxPoint x="1000" y="124" as="targetPoint" />
          </mxGeometry>
        </mxCell>
        <mxCell id="LowAc8mE-aye6n6s5Lvp-46" value="" style="startArrow=none;endArrow=none;rounded=0;edgeStyle=orthogonalEdgeStyle;fontSize=22;labelBackgroundColor=none;" parent="1" source="EfrmEKC3pFDqlyyvmcpR-4" target="EfrmEKC3pFDqlyyvmcpR-5" edge="1">
          <mxGeometry relative="1" as="geometry">
            <mxPoint x="1058.5" y="226" as="sourcePoint" />
            <mxPoint x="1138.96" y="344" as="targetPoint" />
          </mxGeometry>
        </mxCell>
        <mxCell id="EfrmEKC3pFDqlyyvmcpR-1" value="&lt;span style=&quot;text-wrap-mode: wrap;&quot;&gt;ISP / Internet&lt;/span&gt;" style="outlineConnect=0;dashed=0;verticalLabelPosition=bottom;verticalAlign=top;align=center;html=1;shape=mxgraph.aws3.internet_gateway;fillColor=#F58534;gradientColor=none;fontSize=20;labelBackgroundColor=none;whiteSpace=wrap;" vertex="1" parent="1">
          <mxGeometry x="870" y="-166" width="169" height="150" as="geometry" />
        </mxCell>
        <mxCell id="EfrmEKC3pFDqlyyvmcpR-2" value="&lt;span style=&quot;text-wrap-mode: wrap;&quot;&gt;HQ Perimeter Router&lt;/span&gt;" style="image;aspect=fixed;perimeter=ellipsePerimeter;html=1;align=center;shadow=0;dashed=0;spacingTop=3;image=img/lib/active_directory/router.svg;fontSize=22;labelBackgroundColor=none;whiteSpace=wrap;" vertex="1" parent="1">
          <mxGeometry x="681" y="54" width="105.27" height="80" as="geometry" />
        </mxCell>
        <mxCell id="EfrmEKC3pFDqlyyvmcpR-3" value="&lt;span style=&quot;color: rgb(0, 0, 0); text-wrap-mode: wrap;&quot;&gt;HQ Firewall&lt;/span&gt;" style="sketch=0;outlineConnect=0;fontColor=#232F3E;gradientColor=none;fillColor=#8C4FFF;strokeColor=none;dashed=0;verticalLabelPosition=bottom;verticalAlign=top;align=center;html=1;fontSize=22;fontStyle=0;aspect=fixed;pointerEvents=1;shape=mxgraph.aws4.route_53_resolver_dns_firewall;labelBackgroundColor=none;whiteSpace=wrap;" vertex="1" parent="1">
          <mxGeometry x="533.5" y="154" width="110" height="110" as="geometry" />
        </mxCell>
        <mxCell id="EfrmEKC3pFDqlyyvmcpR-4" value="&lt;span style=&quot;text-wrap-mode: wrap;&quot;&gt;Encrypted VPN Tunnel&lt;/span&gt;" style="sketch=0;points=[[0.015,0.015,0],[0.985,0.015,0],[0.985,0.985,0],[0.015,0.985,0],[0.25,0,0],[0.5,0,0],[0.75,0,0],[1,0.25,0],[1,0.5,0],[1,0.75,0],[0.75,1,0],[0.5,1,0],[0.25,1,0],[0,0.75,0],[0,0.5,0],[0,0.25,0]];verticalLabelPosition=bottom;html=1;verticalAlign=top;aspect=fixed;align=center;pointerEvents=1;shape=mxgraph.cisco19.rect;prIcon=vpn_concentrator;fillColor=#FAFAFA;strokeColor=#005073;fontSize=22;labelBackgroundColor=none;whiteSpace=wrap;" vertex="1" parent="1">
          <mxGeometry x="903.5" y="74" width="180" height="140.63" as="geometry" />
        </mxCell>
        <mxCell id="EfrmEKC3pFDqlyyvmcpR-5" value="&lt;span style=&quot;text-wrap-mode: wrap;&quot;&gt;Brisbane Edge Router&lt;/span&gt;" style="image;aspect=fixed;perimeter=ellipsePerimeter;html=1;align=center;shadow=0;dashed=0;spacingTop=3;image=img/lib/active_directory/router.svg;fontSize=22;labelBackgroundColor=none;whiteSpace=wrap;" vertex="1" parent="1">
          <mxGeometry x="1162.21" y="216" width="131.59" height="100" as="geometry" />
        </mxCell>
        <mxCell id="EfrmEKC3pFDqlyyvmcpR-7" value="&lt;span style=&quot;text-wrap-mode: wrap;&quot;&gt;HQ Core Switch&lt;/span&gt;" style="verticalLabelPosition=bottom;sketch=0;html=1;fillColor=#6ABD46;strokeColor=#ffffff;verticalAlign=top;align=center;points=[[0.085,0.085,0],[0.915,0.085,0],[0.915,0.915,0],[0.085,0.915,0],[0.25,0,0],[0.5,0,0],[0.75,0,0],[1,0.25,0],[1,0.5,0],[1,0.75,0],[0.75,1,0],[0.5,1,0],[0.25,1,0],[0,0.75,0],[0,0.5,0],[0,0.25,0]];pointerEvents=1;shape=mxgraph.cisco_safe.compositeIcon;bgIcon=mxgraph.cisco_safe.architecture.generic_appliance;resIcon=mxgraph.cisco_safe.architecture.l3_switch;fontSize=22;labelBackgroundColor=none;whiteSpace=wrap;" vertex="1" parent="1">
          <mxGeometry x="533.5" y="347" width="110" height="110" as="geometry" />
        </mxCell>
        <mxCell id="EfrmEKC3pFDqlyyvmcpR-10" value="&lt;span style=&quot;text-wrap-mode: wrap;&quot;&gt;DMZ Servers: Email / Web&lt;/span&gt;" style="image;html=1;image=img/lib/clip_art/computers/Server_Rack_128x128.png;fontSize=22;labelBackgroundColor=none;whiteSpace=wrap;" vertex="1" parent="1">
          <mxGeometry x="819" y="501" width="120" height="110" as="geometry" />
        </mxCell>
        <mxCell id="EfrmEKC3pFDqlyyvmcpR-11" value="&lt;span style=&quot;text-wrap-mode: wrap;&quot;&gt;Access Switch F1&lt;/span&gt;" style="verticalLabelPosition=bottom;sketch=0;html=1;fillColor=#A153A0;strokeColor=#ffffff;verticalAlign=top;align=center;points=[[0,0.5,0],[0.125,0.25,0],[0.25,0,0],[0.5,0,0],[0.75,0,0],[0.875,0.25,0],[1,0.5,0],[0.875,0.75,0],[0.75,1,0],[0.5,1,0],[0.125,0.75,0]];pointerEvents=1;shape=mxgraph.cisco_safe.compositeIcon;bgIcon=mxgraph.cisco_safe.design.blank_device;resIcon=mxgraph.cisco_safe.design.access_switch_2;fontSize=22;labelBackgroundColor=none;whiteSpace=wrap;" vertex="1" parent="1">
          <mxGeometry x="138.5" y="785" width="110" height="80" as="geometry" />
        </mxCell>
        <mxCell id="EfrmEKC3pFDqlyyvmcpR-12" value="&lt;span style=&quot;text-wrap-mode: wrap;&quot;&gt;HQ Distribution Switch Floor 1&lt;/span&gt;" style="verticalLabelPosition=bottom;sketch=0;html=1;fillColor=#A153A0;strokeColor=#ffffff;verticalAlign=top;align=center;points=[[0,0.5,0],[0.125,0.25,0],[0.25,0,0],[0.5,0,0],[0.75,0,0],[0.875,0.25,0],[1,0.5,0],[0.875,0.75,0],[0.75,1,0],[0.5,1,0],[0.125,0.75,0]];pointerEvents=1;shape=mxgraph.cisco_safe.compositeIcon;bgIcon=mxgraph.cisco_safe.design.blank_device;resIcon=mxgraph.cisco_safe.design.distribution_switch;fontSize=22;labelBackgroundColor=none;whiteSpace=wrap;" vertex="1" parent="1">
          <mxGeometry x="133.5" y="511" width="120" height="92" as="geometry" />
        </mxCell>
        <mxCell id="EfrmEKC3pFDqlyyvmcpR-13" value="HQ Distribution Switch Floor 2" style="verticalLabelPosition=bottom;sketch=0;html=1;fillColor=#A153A0;strokeColor=#ffffff;verticalAlign=top;align=center;points=[[0,0.5,0],[0.125,0.25,0],[0.25,0,0],[0.5,0,0],[0.75,0,0],[0.875,0.25,0],[1,0.5,0],[0.875,0.75,0],[0.75,1,0],[0.5,1,0],[0.125,0.75,0]];pointerEvents=1;shape=mxgraph.cisco_safe.compositeIcon;bgIcon=mxgraph.cisco_safe.design.blank_device;resIcon=mxgraph.cisco_safe.design.distribution_switch;fontSize=22;labelBackgroundColor=none;whiteSpace=wrap;" vertex="1" parent="1">
          <mxGeometry x="529.5" y="533" width="120" height="92" as="geometry" />
        </mxCell>
        <mxCell id="EfrmEKC3pFDqlyyvmcpR-14" value="&lt;span style=&quot;text-wrap-mode: wrap;&quot;&gt;Access Switch F2&lt;/span&gt;" style="verticalLabelPosition=bottom;sketch=0;html=1;fillColor=#A153A0;strokeColor=#ffffff;verticalAlign=top;align=center;points=[[0,0.5,0],[0.125,0.25,0],[0.25,0,0],[0.5,0,0],[0.75,0,0],[0.875,0.25,0],[1,0.5,0],[0.875,0.75,0],[0.75,1,0],[0.5,1,0],[0.125,0.75,0]];pointerEvents=1;shape=mxgraph.cisco_safe.compositeIcon;bgIcon=mxgraph.cisco_safe.design.blank_device;resIcon=mxgraph.cisco_safe.design.access_switch_2;fontSize=22;labelBackgroundColor=none;whiteSpace=wrap;" vertex="1" parent="1">
          <mxGeometry x="533.5" y="772" width="110" height="80" as="geometry" />
        </mxCell>
        <mxCell id="EfrmEKC3pFDqlyyvmcpR-15" value="HQ Staff PCs" style="shape=mxgraph.networks2.icon;aspect=fixed;fillColor=#EDEDED;strokeColor=#000000;gradientColor=#5B6163;network2IconShadow=1;network2bgFillColor=none;labelPosition=center;verticalLabelPosition=bottom;align=center;verticalAlign=top;network2Icon=mxgraph.networks2.pc;network2IconYOffset=-0.0593;network2IconW=0.9999;network2IconH=0.7096;fontSize=22;labelBackgroundColor=none;whiteSpace=wrap;" vertex="1" parent="1">
          <mxGeometry x="10" y="979" width="162.73" height="115.48" as="geometry" />
        </mxCell>
        <mxCell id="EfrmEKC3pFDqlyyvmcpR-16" value="HQ Staff PCs" style="shape=mxgraph.networks2.icon;aspect=fixed;fillColor=#EDEDED;strokeColor=#000000;gradientColor=#5B6163;network2IconShadow=1;network2bgFillColor=none;labelPosition=center;verticalLabelPosition=bottom;align=center;verticalAlign=top;network2Icon=mxgraph.networks2.pc;network2IconYOffset=-0.0593;network2IconW=0.9999;network2IconH=0.7096;fontSize=22;labelBackgroundColor=none;whiteSpace=wrap;" vertex="1" parent="1">
          <mxGeometry x="414" y="989" width="162.73" height="115.48" as="geometry" />
        </mxCell>
        <mxCell id="EfrmEKC3pFDqlyyvmcpR-17" value="Brisbane Staff PCs" style="shape=mxgraph.networks2.icon;aspect=fixed;fillColor=#EDEDED;strokeColor=#000000;gradientColor=#5B6163;network2IconShadow=1;network2bgFillColor=none;labelPosition=center;verticalLabelPosition=bottom;align=center;verticalAlign=top;network2Icon=mxgraph.networks2.pc;network2IconYOffset=-0.0593;network2IconW=0.9999;network2IconH=0.7096;fontSize=22;labelBackgroundColor=none;whiteSpace=wrap;" vertex="1" parent="1">
          <mxGeometry x="801" y="1156.25" width="162.73" height="115.48" as="geometry" />
        </mxCell>
        <mxCell id="EfrmEKC3pFDqlyyvmcpR-18" value="Brisbane Staff PCs" style="shape=mxgraph.networks2.icon;aspect=fixed;fillColor=#EDEDED;strokeColor=#000000;gradientColor=#5B6163;network2IconShadow=1;network2bgFillColor=none;labelPosition=center;verticalLabelPosition=bottom;align=center;verticalAlign=top;network2Icon=mxgraph.networks2.pc;network2IconYOffset=-0.0593;network2IconW=0.9999;network2IconH=0.7096;fontSize=22;labelBackgroundColor=none;whiteSpace=wrap;" vertex="1" parent="1">
          <mxGeometry x="1266.6399999999999" y="1151.26" width="162.73" height="115.48" as="geometry" />
        </mxCell>
        <mxCell id="EfrmEKC3pFDqlyyvmcpR-20" value="&lt;span style=&quot;text-wrap-mode: wrap;&quot;&gt;Brisbane Access Switch 1&lt;/span&gt;" style="verticalLabelPosition=bottom;sketch=0;html=1;fillColor=#A153A0;strokeColor=#ffffff;verticalAlign=top;align=center;points=[[0,0.5,0],[0.125,0.25,0],[0.25,0,0],[0.5,0,0],[0.75,0,0],[0.875,0.25,0],[1,0.5,0],[0.875,0.75,0],[0.75,1,0],[0.5,1,0],[0.125,0.75,0]];pointerEvents=1;shape=mxgraph.cisco_safe.compositeIcon;bgIcon=mxgraph.cisco_safe.design.blank_device;resIcon=mxgraph.cisco_safe.design.access_switch_2;fontSize=22;labelBackgroundColor=none;whiteSpace=wrap;" vertex="1" parent="1">
          <mxGeometry x="939" y="933" width="110" height="80" as="geometry" />
        </mxCell>
        <mxCell id="EfrmEKC3pFDqlyyvmcpR-21" value="&lt;span style=&quot;text-wrap-mode: wrap;&quot;&gt;Brisbane Access Switch 2&lt;/span&gt;" style="verticalLabelPosition=bottom;sketch=0;html=1;fillColor=#A153A0;strokeColor=#ffffff;verticalAlign=top;align=center;points=[[0,0.5,0],[0.125,0.25,0],[0.25,0,0],[0.5,0,0],[0.75,0,0],[0.875,0.25,0],[1,0.5,0],[0.875,0.75,0],[0.75,1,0],[0.5,1,0],[0.125,0.75,0]];pointerEvents=1;shape=mxgraph.cisco_safe.compositeIcon;bgIcon=mxgraph.cisco_safe.design.blank_device;resIcon=mxgraph.cisco_safe.design.access_switch_2;fontSize=22;labelBackgroundColor=none;whiteSpace=wrap;" vertex="1" parent="1">
          <mxGeometry x="1410" y="949" width="110" height="80" as="geometry" />
        </mxCell>
        <mxCell id="EfrmEKC3pFDqlyyvmcpR-22" value="&lt;span style=&quot;text-wrap-mode: wrap;&quot;&gt;Brisbane Core Switch&lt;/span&gt;" style="verticalLabelPosition=bottom;sketch=0;html=1;fillColor=#6ABD46;strokeColor=#ffffff;verticalAlign=top;align=center;points=[[0.085,0.085,0],[0.915,0.085,0],[0.915,0.915,0],[0.085,0.915,0],[0.25,0,0],[0.5,0,0],[0.75,0,0],[1,0.25,0],[1,0.5,0],[1,0.75,0],[0.75,1,0],[0.5,1,0],[0.25,1,0],[0,0.75,0],[0,0.5,0],[0,0.25,0]];pointerEvents=1;shape=mxgraph.cisco_safe.compositeIcon;bgIcon=mxgraph.cisco_safe.architecture.generic_appliance;resIcon=mxgraph.cisco_safe.architecture.l3_switch;fontSize=22;labelBackgroundColor=none;whiteSpace=wrap;" vertex="1" parent="1">
          <mxGeometry x="1173.01" y="742" width="110" height="110" as="geometry" />
        </mxCell>
        <mxCell id="EfrmEKC3pFDqlyyvmcpR-23" value="&lt;span style=&quot;color: rgb(0, 0, 0); text-wrap-mode: wrap;&quot;&gt;Brisbane Firewall&lt;/span&gt;" style="sketch=0;outlineConnect=0;fontColor=#232F3E;gradientColor=none;fillColor=#8C4FFF;strokeColor=none;dashed=0;verticalLabelPosition=bottom;verticalAlign=top;align=center;html=1;fontSize=22;fontStyle=0;aspect=fixed;pointerEvents=1;shape=mxgraph.aws4.route_53_resolver_dns_firewall;labelBackgroundColor=none;whiteSpace=wrap;" vertex="1" parent="1">
          <mxGeometry x="1173.01" y="457" width="110" height="110" as="geometry" />
        </mxCell>
        <mxCell id="EfrmEKC3pFDqlyyvmcpR-24" value="&lt;span style=&quot;text-wrap-mode: wrap;&quot;&gt;HQ WiFi APs&lt;/span&gt;" style="verticalLabelPosition=bottom;sketch=0;html=1;fillColor=#A153A0;strokeColor=#ffffff;verticalAlign=top;align=center;points=[[0,0.5,0],[0.125,0.25,0],[0.25,0,0],[0.5,0,0],[0.75,0,0],[0.875,0.25,0],[1,0.5,0],[0.875,0.75,0],[0.75,1,0],[0.5,1,0],[0.125,0.75,0]];pointerEvents=1;shape=mxgraph.cisco_safe.compositeIcon;bgIcon=mxgraph.cisco_safe.design.blank_device;resIcon=mxgraph.cisco_safe.design.access_point;fontSize=22;labelBackgroundColor=none;whiteSpace=wrap;" vertex="1" parent="1">
          <mxGeometry x="230" y="979" width="131.5" height="105.5" as="geometry" />
        </mxCell>
        <mxCell id="EfrmEKC3pFDqlyyvmcpR-25" value="&lt;span style=&quot;text-wrap-mode: wrap;&quot;&gt;HQ WiFi APs&lt;/span&gt;" style="verticalLabelPosition=bottom;sketch=0;html=1;fillColor=#A153A0;strokeColor=#ffffff;verticalAlign=top;align=center;points=[[0,0.5,0],[0.125,0.25,0],[0.25,0,0],[0.5,0,0],[0.75,0,0],[0.875,0.25,0],[1,0.5,0],[0.875,0.75,0],[0.75,1,0],[0.5,1,0],[0.125,0.75,0]];pointerEvents=1;shape=mxgraph.cisco_safe.compositeIcon;bgIcon=mxgraph.cisco_safe.design.blank_device;resIcon=mxgraph.cisco_safe.design.access_point;fontSize=22;labelBackgroundColor=none;whiteSpace=wrap;" vertex="1" parent="1">
          <mxGeometry x="643.5" y="989" width="131.5" height="105.5" as="geometry" />
        </mxCell>
        <mxCell id="EfrmEKC3pFDqlyyvmcpR-26" value="&lt;span style=&quot;text-wrap-mode: wrap;&quot;&gt;Brisbane WiFi AP&lt;/span&gt;" style="verticalLabelPosition=bottom;sketch=0;html=1;fillColor=#A153A0;strokeColor=#ffffff;verticalAlign=top;align=center;points=[[0,0.5,0],[0.125,0.25,0],[0.25,0,0],[0.5,0,0],[0.75,0,0],[0.875,0.25,0],[1,0.5,0],[0.875,0.75,0],[0.75,1,0],[0.5,1,0],[0.125,0.75,0]];pointerEvents=1;shape=mxgraph.cisco_safe.compositeIcon;bgIcon=mxgraph.cisco_safe.design.blank_device;resIcon=mxgraph.cisco_safe.design.access_point;fontSize=22;labelBackgroundColor=none;whiteSpace=wrap;" vertex="1" parent="1">
          <mxGeometry x="1049" y="1190.25" width="131.5" height="105.5" as="geometry" />
        </mxCell>
        <mxCell id="EfrmEKC3pFDqlyyvmcpR-27" value="&lt;span style=&quot;text-wrap-mode: wrap;&quot;&gt;Brisbane WiFi AP&lt;/span&gt;" style="verticalLabelPosition=bottom;sketch=0;html=1;fillColor=#A153A0;strokeColor=#ffffff;verticalAlign=top;align=center;points=[[0,0.5,0],[0.125,0.25,0],[0.25,0,0],[0.5,0,0],[0.75,0,0],[0.875,0.25,0],[1,0.5,0],[0.875,0.75,0],[0.75,1,0],[0.5,1,0],[0.125,0.75,0]];pointerEvents=1;shape=mxgraph.cisco_safe.compositeIcon;bgIcon=mxgraph.cisco_safe.design.blank_device;resIcon=mxgraph.cisco_safe.design.access_point;fontSize=22;labelBackgroundColor=none;whiteSpace=wrap;" vertex="1" parent="1">
          <mxGeometry x="1530" y="1161.24" width="131.5" height="105.5" as="geometry" />
        </mxCell>
        <mxCell id="EfrmEKC3pFDqlyyvmcpR-30" value="&lt;h1 style=&quot;margin-top: 0px;&quot;&gt;&lt;font style=&quot;font-size: 44px;&quot;&gt;Architecture Network&lt;/font&gt;&lt;/h1&gt;" style="text;html=1;whiteSpace=wrap;overflow=hidden;rounded=0;labelBackgroundColor=none;align=center;" vertex="1" parent="1">
          <mxGeometry y="-257" width="1680" height="90" as="geometry" />
        </mxCell>
        <mxCell id="EfrmEKC3pFDqlyyvmcpR-32" value="TravelAgency-Staff SSID" style="whiteSpace=wrap;strokeWidth=2;labelBackgroundColor=none;fontSize=18;fillColor=#fff2cc;strokeColor=#d6b656;" vertex="1" parent="1">
          <mxGeometry x="2326" y="364" width="229" height="54" as="geometry" />
        </mxCell>
        <mxCell id="EfrmEKC3pFDqlyyvmcpR-33" value="TravelAgency-Guest SSID" style="whiteSpace=wrap;strokeWidth=2;labelBackgroundColor=none;fontSize=18;fillColor=#fff2cc;strokeColor=#d6b656;" vertex="1" parent="1">
          <mxGeometry x="2632" y="364" width="236" height="54" as="geometry" />
        </mxCell>
        <mxCell id="EfrmEKC3pFDqlyyvmcpR-34" value="TravelAgency-IoT SSID" style="whiteSpace=wrap;strokeWidth=2;labelBackgroundColor=none;fontSize=18;fillColor=#fff2cc;strokeColor=#d6b656;" vertex="1" parent="1">
          <mxGeometry x="2928" y="364" width="217" height="54" as="geometry" />
        </mxCell>
        <mxCell id="EfrmEKC3pFDqlyyvmcpR-41" value="" style="startArrow=none;endArrow=block;exitX=0;exitY=0.5;entryX=0.5;entryY=0;rounded=0;exitDx=0;exitDy=0;exitPerimeter=0;edgeStyle=orthogonalEdgeStyle;labelBackgroundColor=none;fontSize=18;" edge="1" parent="1" source="EfrmEKC3pFDqlyyvmcpR-50" target="EfrmEKC3pFDqlyyvmcpR-32">
          <mxGeometry relative="1" as="geometry">
            <mxPoint x="2637" y="335.89999999999964" as="sourcePoint" />
          </mxGeometry>
        </mxCell>
        <mxCell id="EfrmEKC3pFDqlyyvmcpR-42" value="" style="startArrow=none;endArrow=block;exitX=0.5;exitY=1;entryX=0.5;entryY=0;rounded=0;exitDx=0;exitDy=0;exitPerimeter=0;edgeStyle=orthogonalEdgeStyle;labelBackgroundColor=none;fontSize=18;" edge="1" parent="1" source="EfrmEKC3pFDqlyyvmcpR-50" target="EfrmEKC3pFDqlyyvmcpR-33">
          <mxGeometry relative="1" as="geometry">
            <mxPoint x="2750" y="344" as="sourcePoint" />
          </mxGeometry>
        </mxCell>
        <mxCell id="EfrmEKC3pFDqlyyvmcpR-43" value="" style="startArrow=none;endArrow=block;exitX=1;exitY=0.5;entryX=0.5;entryY=0;rounded=0;exitDx=0;exitDy=0;exitPerimeter=0;edgeStyle=orthogonalEdgeStyle;labelBackgroundColor=none;fontSize=18;" edge="1" parent="1" source="EfrmEKC3pFDqlyyvmcpR-50" target="EfrmEKC3pFDqlyyvmcpR-34">
          <mxGeometry relative="1" as="geometry">
            <mxPoint x="2863" y="337.52" as="sourcePoint" />
          </mxGeometry>
        </mxCell>
        <mxCell id="EfrmEKC3pFDqlyyvmcpR-44" value="" style="curved=1;startArrow=none;endArrow=block;exitX=0.5;exitY=1;rounded=0;labelBackgroundColor=none;fontSize=18;" edge="1" parent="1" source="EfrmEKC3pFDqlyyvmcpR-32" target="EfrmEKC3pFDqlyyvmcpR-51">
          <mxGeometry relative="1" as="geometry">
            <Array as="points" />
            <mxPoint x="2440" y="468" as="targetPoint" />
          </mxGeometry>
        </mxCell>
        <mxCell id="EfrmEKC3pFDqlyyvmcpR-45" value="" style="curved=1;startArrow=none;endArrow=block;exitX=0.5;exitY=1;entryX=0.5;entryY=0;rounded=0;entryDx=0;entryDy=0;labelBackgroundColor=none;fontSize=18;" edge="1" parent="1" source="EfrmEKC3pFDqlyyvmcpR-33" target="EfrmEKC3pFDqlyyvmcpR-54">
          <mxGeometry relative="1" as="geometry">
            <Array as="points" />
            <mxPoint x="2750" y="468" as="targetPoint" />
          </mxGeometry>
        </mxCell>
        <mxCell id="EfrmEKC3pFDqlyyvmcpR-46" value="" style="curved=1;startArrow=none;endArrow=block;exitX=0.5;exitY=1;entryX=0.5;entryY=0;rounded=0;entryDx=0;entryDy=0;labelBackgroundColor=none;fontSize=18;" edge="1" parent="1" source="EfrmEKC3pFDqlyyvmcpR-34" target="EfrmEKC3pFDqlyyvmcpR-56">
          <mxGeometry relative="1" as="geometry">
            <Array as="points" />
            <mxPoint x="3036.5" y="480" as="targetPoint" />
          </mxGeometry>
        </mxCell>
        <mxCell id="EfrmEKC3pFDqlyyvmcpR-47" value="" style="curved=1;startArrow=none;endArrow=block;rounded=0;labelBackgroundColor=none;fontSize=18;" edge="1" parent="1" source="EfrmEKC3pFDqlyyvmcpR-51" target="EfrmEKC3pFDqlyyvmcpR-52">
          <mxGeometry relative="1" as="geometry">
            <Array as="points" />
            <mxPoint x="2440" y="546" as="sourcePoint" />
            <mxPoint x="2439.5" y="606" as="targetPoint" />
          </mxGeometry>
        </mxCell>
        <mxCell id="EfrmEKC3pFDqlyyvmcpR-48" value="" style="curved=1;startArrow=none;endArrow=block;exitX=0.5;exitY=1;entryX=0.5;entryY=0.03;rounded=0;entryDx=0;entryDy=0;entryPerimeter=0;exitDx=0;exitDy=0;labelBackgroundColor=none;fontSize=18;" edge="1" parent="1" source="EfrmEKC3pFDqlyyvmcpR-54" target="EfrmEKC3pFDqlyyvmcpR-53">
          <mxGeometry relative="1" as="geometry">
            <Array as="points" />
            <mxPoint x="2750" y="546" as="sourcePoint" />
            <mxPoint x="2750" y="596" as="targetPoint" />
          </mxGeometry>
        </mxCell>
        <mxCell id="EfrmEKC3pFDqlyyvmcpR-49" value="" style="curved=1;startArrow=none;endArrow=block;exitX=0.5;exitY=1;rounded=0;exitDx=0;exitDy=0;labelBackgroundColor=none;fontSize=18;" edge="1" parent="1" source="EfrmEKC3pFDqlyyvmcpR-56" target="EfrmEKC3pFDqlyyvmcpR-58">
          <mxGeometry relative="1" as="geometry">
            <Array as="points" />
            <mxPoint x="3036.5" y="534" as="sourcePoint" />
            <mxPoint x="3036.5" y="606" as="targetPoint" />
          </mxGeometry>
        </mxCell>
        <mxCell id="EfrmEKC3pFDqlyyvmcpR-50" value="&lt;span style=&quot;text-wrap-mode: wrap;&quot;&gt;Enterprise Access Point&lt;/span&gt;" style="sketch=0;points=[[0.015,0.015,0],[0.985,0.015,0],[0.985,0.985,0],[0.015,0.985,0],[0.25,0,0],[0.5,0,0],[0.75,0,0],[1,0.25,0],[1,0.5,0],[1,0.75,0],[0.75,1,0],[0.5,1,0],[0.25,1,0],[0,0.75,0],[0,0.5,0],[0,0.25,0]];verticalLabelPosition=bottom;html=1;verticalAlign=top;aspect=fixed;align=center;pointerEvents=1;shape=mxgraph.cisco19.rect;prIcon=dual_mode_access_point;fillColor=#FAFAFA;strokeColor=#005073;labelBackgroundColor=none;whiteSpace=wrap;fontSize=18;" vertex="1" parent="1">
          <mxGeometry x="2686" y="184" width="128" height="100" as="geometry" />
        </mxCell>
        <mxCell id="EfrmEKC3pFDqlyyvmcpR-51" value="&lt;span style=&quot;text-wrap-mode: wrap;&quot;&gt;RADIUS Server: WPA3 Enterprise&lt;/span&gt;" style="image;points=[];aspect=fixed;html=1;align=center;shadow=0;dashed=0;image=img/lib/allied_telesis/storage/Datacenter_Server_Half_Rack_ToR.svg;labelBackgroundColor=none;whiteSpace=wrap;fontSize=18;" vertex="1" parent="1">
          <mxGeometry x="2395.55" y="470" width="86.2" height="112" as="geometry" />
        </mxCell>
        <mxCell id="EfrmEKC3pFDqlyyvmcpR-52" value="&lt;span style=&quot;text-wrap-mode: wrap;&quot;&gt;Corporate LAN Access&lt;/span&gt;" style="points=[[0.03,0.36,0],[0.18,0,0],[0.5,0.34,0],[0.82,0,0],[0.97,0.36,0],[1,0.67,0],[0.975,0.975,0],[0.5,1,0],[0.025,0.975,0],[0,0.67,0]];verticalLabelPosition=bottom;sketch=0;html=1;verticalAlign=top;aspect=fixed;align=center;pointerEvents=1;shape=mxgraph.cisco19.wireless_access_point;fillColor=#005073;strokeColor=none;labelBackgroundColor=none;whiteSpace=wrap;fontSize=18;" vertex="1" parent="1">
          <mxGeometry x="2395.5" y="712" width="90" height="90" as="geometry" />
        </mxCell>
        <mxCell id="EfrmEKC3pFDqlyyvmcpR-53" value="&lt;span style=&quot;text-wrap-mode: wrap;&quot;&gt;Internet Only&lt;/span&gt;" style="outlineConnect=0;dashed=0;verticalLabelPosition=bottom;verticalAlign=top;align=center;html=1;shape=mxgraph.aws3.actuator;fillColor=#5294CF;gradientColor=none;labelBackgroundColor=none;whiteSpace=wrap;fontSize=18;" vertex="1" parent="1">
          <mxGeometry x="2686" y="713" width="128.25" height="130" as="geometry" />
        </mxCell>
        <mxCell id="EfrmEKC3pFDqlyyvmcpR-54" value="VLAN" style="shape=rect;fillColor=#1192E8;aspect=fixed;resizable=0;labelPosition=center;verticalLabelPosition=bottom;align=center;verticalAlign=top;strokeColor=none;fontSize=18;labelBackgroundColor=none;whiteSpace=wrap;" vertex="1" parent="1">
          <mxGeometry x="2726.13" y="526" width="48" height="48" as="geometry" />
        </mxCell>
        <mxCell id="EfrmEKC3pFDqlyyvmcpR-55" value="&lt;div&gt;&lt;span style=&quot;text-wrap-mode: wrap;&quot;&gt;&lt;br&gt;&lt;/span&gt;&lt;/div&gt;" style="fillColor=#ffffff;strokeColor=none;dashed=0;outlineConnect=0;html=1;labelPosition=center;verticalLabelPosition=bottom;verticalAlign=top;part=1;movable=0;resizable=0;rotatable=0;shape=mxgraph.ibm_cloud.vlan;labelBackgroundColor=none;whiteSpace=wrap;fontSize=18;" vertex="1" parent="EfrmEKC3pFDqlyyvmcpR-54">
          <mxGeometry width="24" height="24" relative="1" as="geometry">
            <mxPoint x="12" y="12" as="offset" />
          </mxGeometry>
        </mxCell>
        <mxCell id="EfrmEKC3pFDqlyyvmcpR-56" value="Classic VLAN" style="shape=rect;fillColor=#1192E8;aspect=fixed;resizable=0;labelPosition=center;verticalLabelPosition=bottom;align=center;verticalAlign=top;strokeColor=none;fontSize=18;labelBackgroundColor=none;whiteSpace=wrap;" vertex="1" parent="1">
          <mxGeometry x="3012.5" y="518" width="48" height="48" as="geometry" />
        </mxCell>
        <mxCell id="EfrmEKC3pFDqlyyvmcpR-57" value="" style="fillColor=#ffffff;strokeColor=none;dashed=0;outlineConnect=0;html=1;labelPosition=center;verticalLabelPosition=bottom;verticalAlign=top;part=1;movable=0;resizable=0;rotatable=0;shape=mxgraph.ibm_cloud.vlan--ibm;labelBackgroundColor=none;whiteSpace=wrap;fontSize=18;" vertex="1" parent="EfrmEKC3pFDqlyyvmcpR-56">
          <mxGeometry width="24" height="24" relative="1" as="geometry">
            <mxPoint x="12" y="12" as="offset" />
          </mxGeometry>
        </mxCell>
        <mxCell id="EfrmEKC3pFDqlyyvmcpR-58" value="&lt;span style=&quot;text-wrap-mode: wrap;&quot;&gt;Restricted Internal Access&lt;/span&gt;" style="image;aspect=fixed;html=1;points=[];align=center;fontSize=18;image=img/lib/azure2/identity/Entra_Internet_Access.svg;labelBackgroundColor=none;whiteSpace=wrap;" vertex="1" parent="1">
          <mxGeometry x="2990" y="712" width="93" height="93" as="geometry" />
        </mxCell>
        <mxCell id="EfrmEKC3pFDqlyyvmcpR-60" value="&lt;h1 style=&quot;margin-top: 0px;&quot;&gt;&lt;font style=&quot;font-size: 34px;&quot;&gt;Wifi Design&lt;/font&gt;&lt;/h1&gt;" style="text;html=1;whiteSpace=wrap;overflow=hidden;rounded=0;align=center;" vertex="1" parent="1">
          <mxGeometry x="2615" y="110" width="240" height="60" as="geometry" />
        </mxCell>
      </root>
    </mxGraphModel>
  </diagram>
</mxfile>
